<?xml version="1.0" encoding="iso-8859-1"?>
<!-- Generator: Adobe Illustrator 19.0.0, SVG Export Plug-In . SVG Version: 6.00 Build 0)  -->
<svg version="1.1" id="Capa_1" xmlns="http://www.w3.org/2000/svg" xmlns:xlink="http://www.w3.org/1999/xlink" x="0px" y="0px"
	 viewBox="0 0 480 480" style="enable-background:new 0 0 480 480;" xml:space="preserve">
<g>
	<g>
		<path d="M427.811,286.24L372.003,39.104V8c0-4.418-3.582-8-8-8h-208c-4.418,0-8,3.582-8,8v31.064L52.211,446.168
			c-0.969,4.121,1.44,8.283,5.496,9.496l80,24c0.746,0.22,1.519,0.334,2.296,0.336c3.2,0,6.091-1.907,7.352-4.848l112.648-262.84
			L295.875,296h-35.872c-4.418,0-8,3.582-8,8v72c-0.001,3.802,2.675,7.08,6.4,7.84l80,16c0.526,0.111,1.062,0.164,1.6,0.16
			c1.977-0.001,3.883-0.733,5.352-2.056l80-72c1.685-1.517,2.647-3.677,2.648-5.944v-32
			C428.003,287.408,427.939,286.818,427.811,286.24z M324.003,16h32v16h-32V16z M324.003,48h33.6l9.032,40h-18.632
			c-13.255,0-24-10.745-24-24V48z M284.003,16h24v16h-24V16z M212.003,16h24v16h-24V16z M164.003,16h32v16h-32V16z M162.339,48
			h33.664v16c0,13.255-10.745,24-24,24h-19.072L162.339,48z M252.003,190.4L135.467,462.288l-65.952-19.784L149.163,104h22.84
			c22.08-0.026,39.974-17.92,40-40V48h40V190.4z M252.003,32V16h16v16H252.003z M268.003,48h16v124l-16,12V48z M412.003,316.44
			l-74.4,66.928l-69.6-13.928V312h144V316.44z M412.003,296h-98.728l-40.848-95.32l24.376-18.28c2.014-1.511,3.2-3.882,3.2-6.4V48h8
			v16c0.026,22.08,17.92,39.974,40,40h22.248l41.752,184.888V296z"/>
	</g>
</g>
<g>
</g>
<g>
</g>
<g>
</g>
<g>
</g>
<g>
</g>
<g>
</g>
<g>
</g>
<g>
</g>
<g>
</g>
<g>
</g>
<g>
</g>
<g>
</g>
<g>
</g>
<g>
</g>
<g>
</g>
</svg>
